<svg width="27" height="28" viewBox="0 0 27 28" fill="none" xmlns="http://www.w3.org/2000/svg">
<path d="M11.3043 19.1225C11.2082 19.1251 11.1125 19.1069 11.0241 19.069C10.9356 19.0311 10.8565 18.9744 10.7921 18.9029C10.7227 18.8368 10.6675 18.7573 10.6298 18.6693C10.5921 18.5812 10.5726 18.4864 10.5726 18.3907C10.5726 18.2949 10.5921 18.2001 10.6298 18.112C10.6675 18.024 10.7227 17.9445 10.7921 17.8784L14.6707 13.9998L10.7921 10.1212C10.6585 9.9849 10.5841 9.80136 10.585 9.61048C10.586 9.4196 10.6623 9.23682 10.7972 9.10185C10.9322 8.96687 11.115 8.89062 11.3059 8.88966C11.4967 8.88869 11.6803 8.9631 11.8166 9.0967L16.2075 13.4875C16.2768 13.5536 16.332 13.6331 16.3697 13.7212C16.4074 13.8092 16.4269 13.904 16.4269 13.9998C16.4269 14.0956 16.4074 14.1904 16.3697 14.2785C16.332 14.3665 16.2768 14.446 16.2075 14.5121L11.8166 18.9029C11.7522 18.9744 11.6731 19.0311 11.5846 19.069C11.4962 19.1069 11.4005 19.1251 11.3043 19.1225Z" fill="white" stroke="white" stroke-width="1.09771"/>
<circle cx="13.5" cy="14" r="12.0748" stroke="white" stroke-width="2.19542"/>
</svg>
