<svg width="72" height="50" viewBox="0 0 72 50" fill="none" xmlns="http://www.w3.org/2000/svg">
<path d="M51.0029 2.56H51H38.1267H37.4012L20.5 2.56L20.4971 2.56C15.8079 2.56553 11.3123 4.43076 7.99654 7.74654L9.72188 9.47188L7.99654 7.74654C4.68076 11.0623 2.81553 15.5579 2.81 20.2471V20.25L2.81 37.025L2.81 37.0278C2.81312 39.6955 3.87423 42.2531 5.76058 44.1394L7.47758 42.4224L5.76058 44.1394C7.64692 46.0258 10.2045 47.0869 12.8721 47.09H12.875C19.2879 47.09 22.6563 42.5658 25.2759 39.0473C25.4169 38.858 25.5557 38.6716 25.6926 38.489C28.5698 34.6528 30.965 31.84 35.75 31.84C40.535 31.84 42.9302 34.6528 45.8074 38.489C45.9443 38.6716 46.0831 38.858 46.2241 39.0473C48.8437 42.5658 52.2121 47.09 58.625 47.09L58.6278 47.09C61.2955 47.0869 63.8531 46.0258 65.7394 44.1394C67.6258 42.2531 68.6869 39.6955 68.69 37.0278V37.025L68.69 20.25L68.69 20.2471C68.6845 15.5579 66.8192 11.0623 63.5035 7.74654C60.1877 4.43076 55.6921 2.56553 51.0029 2.56Z" stroke="#2F4858" stroke-width="4.88"/>
<path d="M18.7558 15.5573L18.943 15.7445L18.7558 15.5573C18.4189 15.8941 18.2297 16.3509 18.2297 16.8273V19.6062H15.4508C14.9745 19.6062 14.5176 19.7954 14.1808 20.1323C13.8439 20.4691 13.6547 20.9259 13.6547 21.4023C13.6547 21.8787 13.8439 22.3355 14.1808 22.6724C14.5176 23.0092 14.9745 23.1984 15.4508 23.1984H18.2297V25.9773C18.2297 26.4537 18.4189 26.9105 18.7558 27.2474C19.0926 27.5842 19.5495 27.7734 20.0258 27.7734C20.5022 27.7734 20.959 27.5842 21.2959 27.2474C21.6327 26.9105 21.8219 26.4537 21.8219 25.9773V23.1984H24.6008C25.0772 23.1984 25.534 23.0092 25.8709 22.6724C26.2077 22.3355 26.3969 21.8787 26.3969 21.4023C26.3969 20.9259 26.2077 20.4691 25.8709 20.1323C25.534 19.7954 25.0772 19.6062 24.6008 19.6062H21.8219V16.8273C21.8219 16.3509 21.6327 15.8941 21.2959 15.5573C20.959 15.2204 20.5022 15.0312 20.0258 15.0312C19.5495 15.0312 19.0926 15.2204 18.7558 15.5573Z" fill="#2F4858" stroke="#2F4858" stroke-width="0.542222"/>
<path d="M44.5446 19.8103L44.7318 19.9975L44.5446 19.8103C44.2078 20.1471 44.0185 20.604 44.0185 21.0803C44.0185 21.5567 44.2078 22.0135 44.5446 22.3504C44.8814 22.6872 45.3383 22.8764 45.8146 22.8764H47.3396C47.816 22.8764 48.2728 22.6872 48.6097 22.3504C48.9465 22.0135 49.1358 21.5567 49.1358 21.0803C49.1358 20.604 48.9465 20.1471 48.6097 19.8103C48.2728 19.4735 47.816 19.2842 47.3396 19.2842H45.8146C45.3383 19.2842 44.8814 19.4735 44.5446 19.8103ZM49.8821 14.4728L50.0693 14.66L49.8821 14.4728C49.5453 14.8096 49.356 15.2665 49.356 15.7428V17.2678C49.356 17.7442 49.5453 18.201 49.8821 18.5379C50.2189 18.8747 50.6758 19.0639 51.1521 19.0639C51.6285 19.0639 52.0853 18.8747 52.4222 18.5379C52.759 18.201 52.9483 17.7442 52.9483 17.2678V15.7428C52.9483 15.2665 52.759 14.8096 52.4222 14.4728C52.0853 14.136 51.6285 13.9467 51.1521 13.9467C50.6758 13.9467 50.2189 14.136 49.8821 14.4728ZM52.4222 27.6879C52.759 27.351 52.9483 26.8942 52.9483 26.4178V24.8928C52.9483 24.4165 52.759 23.9596 52.4222 23.6228C52.0853 23.286 51.6285 23.0967 51.1521 23.0967C50.6758 23.0967 50.2189 23.286 49.8821 23.6228C49.5453 23.9596 49.356 24.4165 49.356 24.8928V26.4178C49.356 26.8942 49.5453 27.351 49.8821 27.6879C50.2189 28.0247 50.6758 28.2139 51.1521 28.2139C51.6285 28.2139 52.0853 28.0247 52.4222 27.6879ZM54.9646 22.8764H56.4896C56.966 22.8764 57.4228 22.6872 57.7597 22.3504C58.0965 22.0135 58.2858 21.5567 58.2858 21.0803C58.2858 20.604 58.0965 20.1471 57.7597 19.8103C57.4228 19.4735 56.966 19.2842 56.4896 19.2842H54.9646C54.4883 19.2842 54.0314 19.4735 53.6946 19.8103C53.3578 20.1471 53.1685 20.604 53.1685 21.0803C53.1685 21.5567 53.3578 22.0135 53.6946 22.3504C54.0314 22.6872 54.4883 22.8764 54.9646 22.8764Z" fill="#2F4858" stroke="#2F4858" stroke-width="0.542222"/>
</svg>
