<svg width="53" height="52" viewBox="0 0 53 52" fill="none" xmlns="http://www.w3.org/2000/svg">
<path d="M49.5 52H3.5C1.85 52 0.5 50.65 0.5 49V37C0.5 36.73 0.54 36.45 0.62 36.18L6.33 2.43C6.57 1 7.75 0 9.19 0H43.81C45.26 0 46.43 1 46.67 2.43L52.27 35.87C52.42 36.22 52.49 36.61 52.49 37V49C52.49 50.65 51.14 52 49.49 52H49.5ZM4.5 48H48.5V38H4.5V48ZM50.15 36L50.47 36.75C50.46 36.69 50.44 36.64 50.41 36.59L50.33 36.32L50.28 36H50.15ZM2.68 36H2.7L8.33 2.62C8.33 2.62 8.31 2.71 8.3 2.76L2.68 36ZM5.06 34H47.91L42.87 4H10.13L5.06 34ZM44.67 2.62L48.76 26.96L44.7 2.76C44.7 2.76 44.68 2.67 44.67 2.63V2.62ZM41.5 46C39.85 46 38.5 44.65 38.5 43C38.5 41.35 39.85 40 41.5 40C43.15 40 44.5 41.35 44.5 43C44.5 44.65 43.15 46 41.5 46ZM41.5 42C40.95 42 40.5 42.45 40.5 43C40.5 43.55 40.95 44 41.5 44C42.05 44 42.5 43.55 42.5 43C42.5 42.45 42.05 42 41.5 42ZM26.5 31C22.37 31 18.44 29.82 15.45 27.69C12.3 25.44 10.5 22.28 10.5 19C10.5 15.72 12.3 12.56 15.45 10.31C18.44 8.17 22.37 7 26.5 7C30.63 7 34.56 8.18 37.55 10.31C40.7 12.56 42.5 15.72 42.5 19C42.5 22.28 40.7 25.44 37.55 27.69C34.56 29.83 30.63 31 26.5 31ZM26.5 11C23.23 11 20.05 11.93 17.77 13.56C15.66 15.07 14.5 17 14.5 19C14.5 21 15.66 22.93 17.77 24.44C20.05 26.07 23.23 27 26.5 27C29.77 27 32.95 26.07 35.23 24.44C37.34 22.93 38.5 21 38.5 19C38.5 17 37.34 15.07 35.23 13.56C32.95 11.93 29.77 11 26.5 11ZM26.5 21C24.26 21 22.5 19.68 22.5 18C22.5 16.32 24.26 15 26.5 15C28.74 15 30.5 16.32 30.5 18C30.5 19.68 28.74 21 26.5 21ZM26.5 17C25.28 17 24.5 17.59 24.5 18C24.5 18.41 25.28 19 26.5 19C27.72 19 28.5 18.41 28.5 18C28.5 17.59 27.72 17 26.5 17Z" fill="#2F4858"/>
</svg>
