<svg width="607" height="268" viewBox="0 0 607 268" fill="none" xmlns="http://www.w3.org/2000/svg">
<path d="M180.579 26.0152L182.55 23.965L180.579 26.0152ZM173 185.5L173.75 182.756L173 185.5ZM345.572 111.327L347.614 109.347L345.572 111.327ZM438.183 244.51L440.118 242.426L438.183 244.51ZM606.775 215.654C607.119 214.121 606.156 212.599 604.623 212.255L579.644 206.649C578.111 206.305 576.59 207.269 576.246 208.802C575.902 210.335 576.865 211.856 578.398 212.2L600.602 217.183L595.619 239.387C595.275 240.92 596.238 242.441 597.771 242.785C599.304 243.129 600.826 242.165 601.17 240.633L606.775 215.654ZM5.81883 65.9999C22.98 36.1825 55.1923 16.0409 88.807 8.74844C122.462 1.44721 156.856 7.14675 178.607 28.0653L182.55 23.965C158.988 1.30439 122.41 -4.36282 87.6009 3.18882C52.7513 10.7492 19.0073 31.6802 0.888201 63.1621L5.81883 65.9999ZM178.607 28.0653C190.291 39.3024 198.878 55.4956 204.342 73.4308C209.8 91.3447 212.083 110.805 211.305 128.378C210.523 146.016 206.674 161.435 200.163 171.486C196.927 176.482 193.113 180.033 188.806 181.973C184.54 183.896 179.561 184.344 173.75 182.756L172.25 188.244C179.201 190.143 185.549 189.681 191.143 187.16C196.697 184.658 201.277 180.231 204.938 174.579C212.223 163.333 216.185 146.767 216.988 128.629C217.794 110.427 215.435 90.3204 209.784 71.7728C204.14 53.2466 195.151 36.0833 182.55 23.965L178.607 28.0653ZM173.75 182.756C162.901 179.792 156.211 174.973 152.612 169.318C149.028 163.686 148.24 156.803 150.036 149.135C153.666 133.64 167.737 115.66 188.184 101.474C228.966 73.1802 293.057 61.2814 343.53 113.308L347.614 109.347C294.564 54.665 227.166 67.5045 184.941 96.8C163.885 111.408 148.573 130.437 144.497 147.837C142.44 156.617 143.218 165.154 147.813 172.373C152.394 179.57 160.498 185.034 172.25 188.244L173.75 182.756ZM343.53 113.308C371.94 142.591 387.01 168.264 398.967 190.377C410.872 212.393 419.94 231.455 436.247 246.595L440.118 242.426C424.673 228.086 416.101 210.104 403.971 187.671C391.894 165.336 376.535 139.158 347.614 109.347L343.53 113.308ZM436.247 246.595C447.083 256.655 458.508 262.896 470.781 265.756C483.037 268.613 495.961 268.057 509.745 264.788C537.197 258.277 568.498 240.886 605.522 217.434L602.478 212.628C565.414 236.105 534.846 252.988 508.432 259.253C495.284 262.371 483.275 262.827 472.072 260.216C460.885 257.608 450.324 251.901 440.118 242.426L436.247 246.595Z" fill="#F15A22"/>
</svg>
