<svg width="766" height="529" viewBox="0 0 766 529" fill="none" xmlns="http://www.w3.org/2000/svg">
<path d="M203.934 30.2749L206.17 27.9505L203.934 30.2749ZM194 242.5L194.85 239.389L194 242.5ZM391 127L388.924 129.468L391 127ZM544 513L545.239 510.023L544 513ZM765.147 471.706C765.537 469.968 764.444 468.243 762.706 467.853L734.386 461.498C732.648 461.108 730.923 462.2 730.533 463.938C730.143 465.676 731.235 467.401 732.973 467.791L758.147 473.441L752.497 498.614C752.107 500.352 753.2 502.077 754.938 502.467C756.676 502.857 758.401 501.765 758.791 500.027L765.147 471.706ZM5.79512 75.6087C25.252 41.8024 61.7737 18.9663 99.8854 10.6983C138.043 2.42029 177.038 8.88231 201.698 32.5994L206.17 27.9505C179.456 2.25837 137.984 -4.167 98.5179 4.3949C59.0062 12.9667 20.748 36.6978 0.20488 72.3913L5.79512 75.6087ZM201.698 32.5994C214.858 45.2553 224.532 65.4771 230.632 88.8163C236.715 112.092 239.153 138.122 238.1 162.034C237.044 186.009 232.494 207.528 224.863 221.949C221.054 229.148 216.595 234.355 211.643 237.327C206.792 240.24 201.259 241.14 194.85 239.389L193.15 245.611C201.21 247.813 208.562 246.7 214.963 242.857C221.264 239.075 226.427 232.784 230.564 224.966C238.826 209.352 243.467 186.756 244.543 162.318C245.622 137.818 243.132 111.137 236.872 87.1853C230.629 63.2969 220.543 41.7744 206.17 27.9505L201.698 32.5994ZM194.85 239.389C182.613 236.046 174.844 230.316 170.479 223.338C166.107 216.347 164.882 207.673 166.576 197.935C169.986 178.33 185.132 155.213 207.773 136.023C252.998 97.6889 326.058 76.5925 388.924 129.468L393.076 124.532C326.942 68.9075 250.252 91.5612 203.602 131.102C180.306 150.849 163.983 175.201 160.221 196.83C158.329 207.71 159.592 218.094 165.011 226.758C170.437 235.434 179.762 241.954 193.15 245.611L194.85 239.389ZM388.924 129.468C412.521 149.315 425.766 179.436 434.258 214.901C442.755 250.382 446.372 290.611 451.131 330.437C455.871 370.097 461.743 409.322 474.861 442.128C488.02 475.038 508.576 501.747 542.761 515.977L545.239 510.023C513.112 496.649 493.575 471.558 480.85 439.733C468.083 407.804 462.278 369.358 457.536 329.671C452.812 290.15 449.141 249.356 440.531 213.399C431.917 177.426 418.236 145.694 393.076 124.532L388.924 129.468ZM542.761 515.977C604.253 541.575 679.304 527.199 763.726 473.724L760.274 468.276C676.696 521.216 603.956 534.465 545.239 510.023L542.761 515.977Z" fill="#F15A22"/>
</svg>
