<svg width="381" height="581" viewBox="0 0 381 581" fill="none" xmlns="http://www.w3.org/2000/svg">
<path d="M367.93 94.107L369.427 94.2081L367.93 94.107ZM284.501 129L283.138 129.628L284.501 129ZM545.78 292.359L544.28 292.358L545.78 292.359ZM182.498 575L182.272 576.483L182.498 575ZM140.963 324.49C141.786 324.393 142.374 323.648 142.278 322.825L140.706 309.417C140.61 308.594 139.865 308.005 139.042 308.102C138.219 308.198 137.63 308.943 137.727 309.766L139.124 321.685L127.205 323.082C126.383 323.178 125.794 323.923 125.89 324.746C125.987 325.569 126.732 326.158 127.555 326.061L140.963 324.49ZM141.051 6.83585C180.251 -0.145161 237.99 4.22932 285.312 19.2221C308.969 26.7173 329.901 36.829 344.592 49.4005C359.264 61.9562 367.592 76.848 366.434 94.0059L369.427 94.2081C370.669 75.8078 361.674 60.0697 346.542 47.1212C331.43 34.1885 310.079 23.922 286.218 16.3622C238.505 1.24535 180.272 -3.19598 140.525 3.88232L141.051 6.83585ZM366.434 94.0059C365.161 112.854 360.138 125.907 353.276 134.529C346.429 143.132 337.671 147.428 328.688 148.642C319.678 149.86 310.414 147.978 302.654 144.16C294.877 140.335 288.751 134.639 285.863 128.372L283.138 129.628C286.389 136.682 293.117 142.812 301.33 146.852C309.559 150.901 319.421 152.922 329.09 151.615C338.787 150.304 348.262 145.646 355.623 136.398C362.968 127.168 368.126 113.473 369.427 94.2081L366.434 94.0059ZM285.863 128.372C280.4 116.516 280.521 107.993 284.228 102.208C287.97 96.3696 295.702 92.7713 306.742 91.6006C328.779 89.2638 362.554 96.778 397.901 112.649C433.202 128.499 469.853 152.588 497.649 183.161C525.442 213.729 544.314 250.696 544.28 292.358L547.28 292.36C547.314 249.741 528.002 212.085 499.869 181.142C471.74 150.204 434.724 125.894 399.13 109.912C363.581 93.9506 329.231 86.1991 306.426 88.6173C295.045 89.8242 286.176 93.6086 281.702 100.59C277.194 107.625 277.484 117.358 283.138 129.628L285.863 128.372ZM544.28 292.358C544.228 355.567 508.052 434.143 444.685 492.802C381.366 551.416 291.017 590.026 182.724 573.517L182.272 576.483C291.591 593.148 382.83 554.148 446.723 495.003C510.567 435.903 547.227 356.572 547.28 292.36L544.28 292.358ZM182.724 573.517C47.5101 552.904 -0.474056 460.449 3.97853 388.359C6.21022 352.227 21.579 321.396 45.5027 306.994C69.2868 292.677 102.054 294.305 139.858 324.177L141.718 321.823C103.272 291.444 69.137 289.266 43.9555 304.424C18.9136 319.499 3.25401 351.425 0.984236 388.174C-3.56607 461.846 45.5548 555.641 182.272 576.483L182.724 573.517Z" fill="#F15A22"/>
</svg>
